PathFileType	4	(X/Y/Z)	3_coords_data.trc
DataRate	CameraRate	NumFrames	NumMarkers	Units	OrigDataRate	OrigDataStartFrame	OrigNumFrames
30.0	30.0	8	21	m	30.0	22	64
Frame#	Time	THUMB_TIP	THUMB_IP	THUMB_MCP	THUMB_CMC	INDEX_TIP	INDEX_DIP	INDEX_PIP	INDEX_MCP	MIDDLE_TIP	MIDDLE_DIP	MIDDLE_PIP	MIDDLE_MCP	RING_TIP	RING_DIP	RING_PIP	RING_MCP	PINKY_TIP	PINKY_DIP	PINKY_PIP	PINKY_MCP	WRIST
X1	Y1	Z1	X2	Y2	Z2	X3	Y3	Z3	X4	Y4	Z4	X5	Y5	Z5	X6	Y6	Z6	X7	Y7	Z7	X8	Y8	Z8	X9	Y9	Z9	X10	Y10	Z10	X11	Y11	Z11	X12	Y12	Z12	X13	Y13	Z13	X14	Y14	Z14	X15	Y15	Z15	X16	Y16	Z16	X17	Y17	Z17	X18	Y18	Z18	X19	Y19	Z19	X20	Y20	Z20	X21	Y21	Z21
20	0.6999999999999968	0.5050469218200325	0.0012148570291159455	-0.1635672500897707	0.4954007397153548	-0.004772103101350789	-0.14358957557045815	0.47999138184610435	-0.01768263436316664	-0.11982637139688246	0.47557049483230984	-0.028484461276503725	-0.07677214636210139	0.5053985569373229	-0.024936911908020942	-0.10422512682347207	0.5225964539059621	-0.02291949507968316	-0.10953194971450675	0.5313016226010909	-0.003951223121814618	-0.12354746004847927	0.4930692442244279	0.014663351979845307	-0.12121960020554712	0.5041190536999518	-0.020879082029581997	-0.08829185558125263	0.5218402939513409	-0.018344631976148995	-0.09103670655702589	0.5374572974250682	0.0028834736206718725	-0.10348203842370629	0.5001930964597183	0.027531504557585296	-0.10352468050363806	0.5044107345850342	-0.008374434935012776	-0.07684469687902384	0.5222909161419682	-0.006091076633982673	-0.07713689948031299	0.5375833696007506	0.01241865338458098	-0.08374830937918143	0.5050604734632036	0.03643086973587023	-0.08437721853416102	0.5072411881258692	-0.009521263479528752	-0.06375138354440313	0.5236784340015973	-0.005203093157369221	-0.06170923930618755	0.5340896998723518	0.012938426083319965	-0.06352661147725369	0.5060254333733051	0.03557232067570154	-0.06253302582344833	0.4622830810018609	-0.023011742144276925	-0.051989820119430985
21	0.7333333333333302	0.505120365497523	0.0011308970132589136	-0.16368021147941358	0.49548633983716606	-0.004849659722575561	-0.14369475449927305	0.48011056129074126	-0.017798562089464287	-0.11993067737466989	0.4754491528460758	-0.028407035711607853	-0.07685375131534788	0.5053801043135573	-0.024903889280222913	-0.10424220540447815	0.5225726150386554	-0.0229069236862236	-0.10957415658427783	0.5312603754321468	-0.003923533497564302	-0.12357999641237805	0.4930280484792924	0.01468769029218231	-0.12122465804644977	0.5041248256618321	-0.02069535075929463	-0.08827936801270597	0.521859116461007	-0.01829868608773999	-0.09106341691716635	0.5374334656720707	0.0029457564188147822	-0.10353429736874342	0.5001460803095126	0.027558736951378615	-0.10353252883234842	0.5043841342173928	-0.008286977000373952	-0.07687356340250362	0.5222542232401871	-0.005921132990113542	-0.07712396395466647	0.5375907053955036	0.012523448212185428	-0.08381498169275836	0.5050154301452425	0.03646634937856502	-0.08437154265682201	0.5072467329361994	-0.009459645177971265	-0.06372380955363455	0.5236801413599415	-0.005111447760253185	-0.06171476331349246	0.5340847340262073	0.013031928478688004	-0.06355170890368034	0.5059789823555931	0.03561191287519366	-0.0625055355512516	0.462283081001861	-0.023011742144276925	-0.051989820119430985
22	0.7666666666666633	0.5053031539016105	0.0010021573054087574	-0.1637805264068869	0.49568306527491024	-0.004982439764084745	-0.14378956613154648	0.4802980541895078	-0.017897560111025834	-0.12001308404680422	0.4753590071432132	-0.028316220601498854	-0.07692077234438166	0.5055327058548207	-0.024991241210084003	-0.10422315792924974	0.5227109297766871	-0.0229964011183873	-0.10960174844152826	0.531382808717136	-0.004003408495759919	-0.12360441175530623	0.49314472066935977	0.014592826875079179	-0.12122433896589924	0.5042726073726655	-0.020718785097672887	-0.08833180677370156	0.5220227957396809	-0.018413137341864116	-0.09109129972741714	0.5375443587670791	0.002855878932899014	-0.10358608175394213	0.5002490713476256	0.027456866490870424	-0.10355661188988774	0.5045761032220816	-0.008351650997528326	-0.07693394113035035	0.5224464641862311	-0.005988607983723582	-0.07719128666831565	0.5377523514400904	0.01246475154150245	-0.08392800074900086	0.5051355245281193	0.03635239461459033	-0.08442190823757967	0.507307148934434	-0.009126608487345589	-0.06382330928978697	0.5238363574720708	-0.0051696092974400365	-0.061791703390406516	0.5342359533097499	0.012971937675415157	-0.06367444045240289	0.5061004654124432	0.03551153756033437	-0.06255899937002007	0.4622830810018609	-0.023011742144276925	-0.051989820119430985
23	0.7999999999999965	0.5055615543448737	0.0008123603702291371	-0.16394575690558488	0.49594995426115907	-0.005155506863402826	-0.14394571429281822	0.48062328674722377	-0.01812820327664122	-0.12016289674133296	0.4751949167616939	-0.02816251709382056	-0.07703824780921342	0.5055616427839573	-0.02502472521658594	-0.10418264509635844	0.522724331699557	-0.02301003453190742	-0.10960326596775483	0.5313778749793225	-0.004016712413065893	-0.12361682142649377	0.49315391450997714	0.014605537453946105	-0.12121333439126858	0.504323699785098	-0.02073941804277768	-0.08831188666379897	0.5220740060610386	-0.018437207521321275	-0.09107349015184674	0.5375661186845945	0.0028210485703140664	-0.10362301382414241	0.5002788436512996	0.027434107655008644	-0.1035569526043334	0.5046099891014159	-0.008336485234593516	-0.07693345700395404	0.522479984991162	-0.005974033869458939	-0.0772199364060584	0.5377979559752191	0.012459076333350527	-0.08398456442115776	0.5051670491436946	0.036328549683364075	-0.08442387677629448	0.5073877307131673	-0.009097121984608991	-0.06380964654541621	0.5239300645411419	-0.0051822964936433236	-0.06180332331643923	0.5342912422260936	0.012978696831267678	-0.06371024162444294	0.506132694057426	0.035487615632723624	-0.06255777018345643	0.462283081001861	-0.023011742144276925	-0.051989820119430985
24	0.8333333333333297	0.5055327083313512	0.0007988174201553622	-0.16400975383464866	0.49593411742477256	-0.005173468233038769	-0.14400478303525	0.4806222729710228	-0.018115285768583123	-0.12019560878873647	0.4751468643834671	-0.028123732666795798	-0.0770708955550814	0.5055755854838129	-0.02492790249364929	-0.10422502583871063	0.5227460079406346	-0.022991201223119817	-0.10964957935425457	0.5313393202771947	-0.00397311204224271	-0.1236666082831871	0.49311201825469475	0.014636055713686424	-0.12121541479587106	0.5043580019745652	-0.02067449989945025	-0.08835592541858917	0.522120699141229	-0.01845352557509905	-0.09110435450007615	0.5375369559964861	0.0028492885848507288	-0.10367172031154948	0.500241001168722	0.02744907240049127	-0.10357017864944429	0.5046116927375861	-0.008295852223595523	-0.07696540414898789	0.5224829826636684	-0.005944209909646725	-0.07725997978469767	0.5377800719599798	0.012497483558087663	-0.08404842438584159	0.5051313538394022	0.03634335519171922	-0.08444395582004749	0.5073867264023353	-0.008930773564150729	-0.06386119438662918	0.5239609313669177	-0.005155859933635765	-0.06184978769623439	0.5342827758462456	0.0130259666666932	-0.0637714346513586	0.5061030838130824	0.03550624245466377	-0.06257744620381234	0.4622830810018608	-0.023011742144276925	-0.051989820119430985
25	0.8666666666666629	0.5053252933922908	0.000897466185093565	-0.16398087501866376	0.495746032734362	-0.00506808755988164	-0.1439646332694423	0.4804044494788028	-0.017924388202075314	-0.1201282879746981	0.47521375247312614	-0.028176588270801273	-0.0770256307672118	0.505559467291084	-0.024884815020469908	-0.10422474737268572	0.5227302273535347	-0.022985748221353797	-0.10966152437475662	0.5312830392465999	-0.003956853483100209	-0.1236886554699701	0.49306487826178547	0.014668599882730615	-0.1212186854588011	0.5043442444118029	-0.020642547142340928	-0.08835880609033597	0.5221103875143341	-0.018463079364044233	-0.09111816823832464	0.5374837617013	0.0028551334480809154	-0.10371192536654006	0.5001966462183213	0.027468190926239477	-0.10358409134961111	0.5046264854630836	-0.00822782500350483	-0.07697948811502331	0.5225041138964842	-0.005931977326202431	-0.07732515419652175	0.5377646728476093	0.012534226575661056	-0.0841291701396274	0.5050955367285346	0.03635290945023184	-0.08447373559638971	0.5074035910332562	-0.008722553307830117	-0.06390777402755232	0.5240233668135824	-0.005153981779111971	-0.061895722771718176	0.534259862143395	0.013075732243844507	-0.06382022504606	0.5060607690279474	0.03553107446256726	-0.06261515064737555	0.462283081001861	-0.023011742144276925	-0.051989820119430985
26	0.8999999999999961	0.5052083952215902	0.0009206600476618365	-0.16404342610730915	0.4956688992201542	-0.0050575500576416355	-0.14401197533669752	0.48035441864666906	-0.017904391770642403	-0.1201531123552928	0.4752025013346407	-0.028133431228297145	-0.07704030103680226	0.5055179460530316	-0.02483118481183544	-0.10424258923369267	0.5226819330320401	-0.022927910886389236	-0.10969924565948475	0.5312022723871258	-0.003887522762902773	-0.12373054176430631	0.492983100473526	0.014730595662588053	-0.12122122740912766	0.5043468244149536	-0.02068674737128451	-0.0883646355114126	0.5221069534746936	-0.018458030779201162	-0.09112337401543025	0.5374418215791735	0.0028752740706108892	-0.10373850280602115	0.5001570908968671	0.02749182803418615	-0.10359001069758722	0.5045996456612464	-0.008159581099162483	-0.07697845231993705	0.522475742486917	-0.0058516227570722945	-0.07732267691294459	0.5377507967390611	0.01258246653170364	-0.0841810330343109	0.5050624653603643	0.036375464969520876	-0.08447607712343697	0.5074202351582691	-0.00840500437981817	-0.06392495159115386	0.5241094187613328	-0.005182572776938121	-0.06190329750897661	0.5342341230220873	0.013108303739342575	-0.06383881265963587	0.5060289934148167	0.03555500338051548	-0.06261415350050581	0.4622830810018609	-0.023011742144276925	-0.051989820119430985
27	0.9333333333333294	0.5051877198067857	0.000896896246614487	-0.16410633296705013	0.4956705114393172	-0.0050809973868154445	-0.14406418905484375	0.4803796044057451	-0.017913899555573765	-0.12018271539810021	0.4751791770476773	-0.028085328155474154	-0.07706209857122048	0.5055549533219195	-0.0248476560025801	-0.10422108031615274	0.5227048305744303	-0.022918848863042407	-0.10971302106986458	0.5311579153631575	-0.00386667566795057	-0.12376897664388409	0.49295087172500063	0.014770110261472513	-0.1212139579251984	0.5043675358394075	-0.020721187863888213	-0.08833965288547907	0.522120807051888	-0.018462816548167393	-0.09111834327061408	0.5374342782072473	0.002871605680226097	-0.10375755128989317	0.5001525409038119	0.02749258814897565	-0.10359260611364429	0.5045809312984219	-0.00817124104594491	-0.0770150811269037	0.5224501240259836	-0.00580388455212244	-0.0773110110111963	0.5377593120637008	0.012578493329186757	-0.08423177137798943	0.5050647477202529	0.036363296130107636	-0.08449530906686553	0.5075410131260483	-0.008405471159414368	-0.06396482997326547	0.5242438297670073	-0.005261426669540548	-0.061932368287478834	0.5342437531431679	0.01309893643843607	-0.06385866473771018	0.5060369723503474	0.03554399315636697	-0.06264194898016828	0.4622830810018609	-0.023011742144276925	-0.051989820119430985
